<svg width="71" height="31" fill="none" xmlns="http://www.w3.org/2000/svg"><path d="M33.912 4.279v26.093h28.115c5.937-.418 8.601-4.076 8.601-8.57 0-4.75-3.594-8.569-8.409-8.569-1.22 0-2.246.257-3.305.706C58.144 6.43 51.757.556 43.894.556a15.33 15.33 0 00-9.982 3.723zm-2.824 3.273c-.963-.577-1.99-1.027-3.114-1.251v24.07h4.462V5.788c-.482.514-.931 1.155-1.348 1.765zM23.545 5.82v24.553h2.953V5.915c-.61-.096-1.22-.128-1.861-.128-.386 0-.739 0-1.092.032zm-5.873 2.086v22.467h2.92V6.428a11.398 11.398 0 00-2.92 1.476zm-5.36 8.024c-.192 0-.385-.193-.61-.289v14.732h2.953V10.665a12.384 12.384 0 00-2.343 5.264zm-6.547-.899v15.053c.674.192 1.444.289 2.279.289h.706V14.774c-.257-.032-.514-.065-.706-.065-.835 0-1.605.129-2.28.321zM.02 22.54c0 2.408 1.091 4.526 2.792 5.97V16.603A7.726 7.726 0 00.02 22.541z" fill="#FF9595"/></svg>