<svg width="80" height="77" fill="none" xmlns="http://www.w3.org/2000/svg"><path d="M32 55l20.76-16.5L32 22v33zm46.24-43.065c.52 2.585.88 6.05 1.12 10.45.28 4.4.4 8.195.4 11.495L80 38.5c0 12.045-.64 20.9-1.76 26.565-1 4.95-3.32 8.14-6.92 9.515-1.88.715-5.32 1.21-10.6 1.54-5.2.385-9.96.55-14.36.55L40 77c-16.76 0-27.2-.88-31.32-2.42-3.6-1.375-5.92-4.565-6.92-9.515-.52-2.585-.88-6.05-1.12-10.45-.28-4.4-.4-8.195-.4-11.495L0 38.5c0-12.045.64-20.9 1.76-26.565 1-4.95 3.32-8.14 6.92-9.515C10.56 1.705 14 1.21 19.28.88c5.2-.385 9.96-.55 14.36-.55L40 0c16.76 0 27.2.88 31.32 2.42 3.6 1.375 5.92 4.565 6.92 9.515z" fill="#FF9595"/></svg>